HIERARCHY
ROOT root
{
	OFFSET 0.000000 0.000000 0.000000
	CHANNELS 6 Xposition Yposition Zposition Zrotation Yrotation Xrotation
	JOINT lhip
	{
		OFFSET 0.058581 -0.082280 -0.017664
		CHANNELS 3 Zrotation Yrotation Xrotation
		JOINT lknee
		{
			OFFSET 0.043451 -0.386469 0.008037
			CHANNELS 3 Zrotation Yrotation Xrotation
			JOINT lankle
			{
				OFFSET -0.014790 -0.426874 -0.037428
				CHANNELS 3 Zrotation Yrotation Xrotation
				JOINT ltoe
				{
					OFFSET 0.041054 -0.060286 0.122042
					CHANNELS 3 Zrotation Yrotation Xrotation
					End Site
					{
						OFFSET 0.000000 0.000000 0.000000
					}
				}
			}
		}
	}
	JOINT rhip
	{
		OFFSET -0.060310 -0.090513 -0.013543
		CHANNELS 3 Zrotation Yrotation Xrotation
		JOINT rknee
		{
			OFFSET -0.043257 -0.383688 -0.004843
			CHANNELS 3 Zrotation Yrotation Xrotation
			JOINT rankle
			{
				OFFSET 0.019056 -0.420046 -0.034562
				CHANNELS 3 Zrotation Yrotation Xrotation
				JOINT rtoe
				{
					OFFSET -0.034840 -0.062106 0.130323
					CHANNELS 3 Zrotation Yrotation Xrotation
					End Site
					{
						OFFSET 0.000000 0.000000 0.000000
					}
				}
			}
		}
	}
	JOINT lowerback
	{
		OFFSET 0.004439 0.124404 -0.038385
		CHANNELS 3 Zrotation Yrotation Xrotation
		JOINT upperback
		{
			OFFSET 0.004488 0.137956 0.026820
			CHANNELS 3 Zrotation Yrotation Xrotation
			JOINT chest
			{
				OFFSET -0.002265 0.056032 0.002855
				CHANNELS 3 Zrotation Yrotation Xrotation
				JOINT lowerneck
				{
					OFFSET -0.013390 0.211636 -0.033468
					CHANNELS 3 Zrotation Yrotation Xrotation
					JOINT upperneck
					{
						OFFSET 0.010113 0.088937 0.050410
						CHANNELS 3 Zrotation Yrotation Xrotation
						End Site
						{
							OFFSET 0.000000 0.000000 0.000000
						}
					}
				}
				JOINT lclavicle
				{
					OFFSET 0.071702 0.114000 -0.018898
					CHANNELS 3 Zrotation Yrotation Xrotation
					JOINT lshoulder
					{
						OFFSET 0.122921 0.045205 -0.019046
						CHANNELS 3 Zrotation Yrotation Xrotation
						JOINT lelbow
						{
							OFFSET 0.255332 -0.015649 -0.022946
							CHANNELS 3 Zrotation Yrotation Xrotation
							JOINT lwrist
							{
								OFFSET 0.265709 0.012698 -0.007375
								CHANNELS 3 Zrotation Yrotation Xrotation
								End Site
								{
									OFFSET 0.000000 0.000000 0.000000
								}
							}
						}
					}
				}
				JOINT rclavicle
				{
					OFFSET -0.082954 0.112472 -0.023707
					CHANNELS 3 Zrotation Yrotation Xrotation
					JOINT rshoulder
					{
						OFFSET -0.113228 0.046853 -0.008472
						CHANNELS 3 Zrotation Yrotation Xrotation
						JOINT relbow
						{
							OFFSET -0.260127 -0.014369 -0.031269
							CHANNELS 3 Zrotation Yrotation Xrotation
							JOINT rwrist
							{
								OFFSET -0.269108 0.006794 -0.006027
								CHANNELS 3 Zrotation Yrotation Xrotation
								End Site
								{
									OFFSET 0.000000 0.000000 0.000000
								}
							}
						}
					}
				}
			}
		}
	}
}
MOTION
Frames: 5
Frame Time: 0.033333
0.034327 0.651464 0.867842 105.474079 -8.857072 85.921517 11.647124 -2.634938 -16.847928 -13.016377 -12.154611 44.343676 -1.391140 4.775943 -34.917617 0.000000 -0.000000 0.000000 -2.462430 -3.202811 -16.741180 -2.679022 -7.834053 96.194031 7.866433 -4.775688 -17.995630 0.000000 -0.000000 0.000000 -10.034314 1.827044 30.358359 -2.787022 -3.210228 -0.422812 -1.171559 -1.765912 -2.427784 -2.371514 -3.279749 -13.524936 7.227498 -6.343182 -3.759264 -27.864442 -5.250565 -1.673039 -32.847223 -10.306699 4.739975 136.850448 -68.993052 -115.834346 11.201996 -14.493186 -20.150573 24.427663 1.902232 1.813173 52.274215 -18.459390 7.509984 -21.087286 65.477337 -8.420301 -8.853898 15.141804 -14.955059 
0.121007 0.678549 0.862573 105.415368 -8.045884 86.408095 11.583765 -1.574599 -9.953937 -12.790794 -14.811796 43.344828 -0.855967 6.142478 -40.436455 0.000000 -0.000000 0.000000 -2.175843 -1.882324 -29.471240 -2.930980 -13.170734 96.171592 7.404583 -3.339664 -22.721327 0.000000 -0.000000 0.000000 -9.093773 -1.624416 33.848564 -2.314609 -2.466058 -1.754390 -0.447306 -2.989266 -2.550753 -3.162376 -0.904494 -17.183054 6.020611 -5.961201 -3.819952 -27.348451 -7.161094 -1.950596 -37.406332 -16.517385 4.051030 136.019568 -65.209938 -113.839615 11.041318 -14.308864 -21.286703 24.284334 1.497298 2.786002 53.325121 -17.910298 6.420562 -22.449159 64.879438 -9.371477 -9.820174 15.420173 -16.854996 
0.213695 0.701192 0.864745 105.058512 -6.412519 87.924099 12.719191 0.439941 -1.261047 -10.501472 -18.391968 37.099654 -1.834455 7.098263 -42.218088 0.000000 -0.000000 0.000000 -3.373721 -0.735247 -41.253947 -3.073764 -16.949722 89.772244 7.022352 -2.873808 -25.985585 0.000000 -0.000000 0.000000 -7.636070 -5.836765 35.345389 -1.458427 -1.517876 -3.236644 0.708254 -3.773015 -1.959529 -4.303617 1.424828 -20.025272 4.371300 -4.664027 -3.417501 -25.500883 -6.725482 -1.977407 -44.236652 -21.711819 5.074225 143.612410 -60.710824 -119.519837 12.115522 -14.824888 -25.523294 23.045559 -0.114575 3.650001 53.544902 -16.955028 6.299800 -23.986128 69.078668 -8.165723 -8.916728 16.853090 -16.966009 
0.312780 0.718491 0.872588 104.848627 -4.496245 90.591283 14.921032 1.711474 6.682188 -7.968351 -20.742038 29.524236 -5.340122 7.444658 -38.188780 0.000000 -0.000000 0.000000 -5.834985 0.127511 -50.309732 -2.837920 -19.959077 78.026067 6.641175 -3.852682 -26.699532 0.000000 -0.000000 0.000000 -4.928530 -9.834835 34.123311 -0.824704 -1.248780 -4.146700 1.709609 -4.594841 -1.312280 -5.147480 3.231333 -21.157832 2.754150 -2.794636 -3.068494 -23.888427 -5.142357 -1.594317 -49.291940 -23.211275 6.797248 152.126598 -57.326382 -125.357460 12.236709 -15.553821 -27.937557 21.497211 -1.433527 4.728707 54.164598 -15.652105 6.678740 -26.035199 73.689174 -8.062804 -8.834494 17.451022 -17.853745 
0.417859 0.731100 0.885206 104.446493 -3.991208 92.638070 15.692226 2.048143 12.615696 -6.167040 -20.636354 25.892943 -11.033490 7.110982 -26.594423 0.000000 -0.000000 0.000000 -8.726255 0.419352 -54.271568 -3.083503 -21.040993 64.595634 7.347755 -4.995103 -23.329772 0.000000 -0.000000 0.000000 -3.004869 -12.381306 32.502547 -0.290670 -1.140200 -3.777363 1.864663 -4.764381 -1.425428 -5.802499 4.571270 -21.925076 1.641691 -2.274620 -3.160014 -23.606397 -3.615745 -1.080005 -50.737753 -21.681805 9.306872 158.527460 -57.468131 -130.544856 11.860145 -16.992261 -29.054226 21.882369 -2.074050 5.313057 54.964645 -14.308918 7.703795 -32.737600 75.309658 -14.587069 -10.115426 17.284069 -18.565489 
